<svg xmlns="http://www.w3.org/2000/svg" width="680" height="345" viewBox="0 0 680 345"><rect width="100%" height="100%" fill="white"/><style>text{font-family:Arial,Helvetica,sans-serif;fill:#111}.t{font-size:16px;font-weight:bold}.s{font-size:12px}.xs{font-size:10px}.a{stroke:#111;stroke-width:1;fill:none}.g{stroke:#aaa;stroke-width:.6}.l1{stroke:#111;stroke-width:2;fill:none}.l2{stroke:#555;stroke-width:2;fill:none;stroke-dasharray:6 4}.l3{stroke:#888;stroke-width:2;fill:none;stroke-dasharray:2 3}.box{fill:#f7f7f7;stroke:#555;stroke-width:1}</style><text x="20" y="24" class="t" text-anchor="start" font-weight="normal">Figure 2. Plasma strong anchor (P2-A)</text><text x="25" y="48" class="xs" text-anchor="start" font-weight="normal">Frozen horizons; K=32 display values (K=32/64/96 converged on tested common subspace).</text><line x1="45" y1="220" x2="325" y2="220" class="a"/><line x1="45" y1="70" x2="45" y2="220" class="a"/><line x1="45" y1="220" x2="325" y2="220" class="g"/><text x="40" y="223" class="xs" text-anchor="end" font-weight="normal">0</text><line x1="45" y1="145.0" x2="325" y2="145.0" class="g"/><text x="40" y="148.0" class="xs" text-anchor="end" font-weight="normal">0.5</text><line x1="45" y1="70" x2="325" y2="70" class="g"/><text x="40" y="73" class="xs" text-anchor="end" font-weight="normal">1</text><text x="45.0" y="234" class="xs" text-anchor="middle" font-weight="normal">0.25</text><text x="72.1" y="234" class="xs" text-anchor="middle" font-weight="normal">1.0</text><text x="180.5" y="234" class="xs" text-anchor="middle" font-weight="normal">4.0</text><text x="325.0" y="234" class="xs" text-anchor="middle" font-weight="normal">8.0</text><polyline points="45.0,110.8 54.0,117.2 72.1,131.0 108.2,151.7 180.5,172.2 325.0,173.3" class="l1"/><polyline points="45.0,113.7 54.0,123.4 72.1,144.3 108.2,176.2 180.5,197.6 325.0,198.5" class="l2"/><circle cx="45.0" cy="110.8" r="2.2" fill="white" stroke="#111"/><circle cx="54.0" cy="117.2" r="2.2" fill="white" stroke="#111"/><circle cx="72.1" cy="131.0" r="2.2" fill="white" stroke="#111"/><circle cx="108.2" cy="151.7" r="2.2" fill="white" stroke="#111"/><circle cx="180.5" cy="172.2" r="2.2" fill="white" stroke="#111"/><circle cx="325.0" cy="173.3" r="2.2" fill="white" stroke="#111"/><circle cx="45.0" cy="113.7" r="2.2" fill="white" stroke="#111"/><circle cx="54.0" cy="123.4" r="2.2" fill="white" stroke="#111"/><circle cx="72.1" cy="144.3" r="2.2" fill="white" stroke="#111"/><circle cx="108.2" cy="176.2" r="2.2" fill="white" stroke="#111"/><circle cx="180.5" cy="197.6" r="2.2" fill="white" stroke="#111"/><circle cx="325.0" cy="198.5" r="2.2" fill="white" stroke="#111"/><line x1="230" y1="82" x2="250" y2="82" class="l1"/><text x="255" y="85" class="xs" text-anchor="start" font-weight="normal">theta / 90</text><line x1="230" y1="98" x2="250" y2="98" class="l2"/><text x="255" y="101" class="xs" text-anchor="start" font-weight="normal">Delta_Gamma</text><text x="185.0" y="240" class="s" text-anchor="middle" font-weight="normal">T</text><line x1="375" y1="220" x2="645" y2="220" class="a"/><line x1="375" y1="70" x2="375" y2="220" class="a"/><line x1="375" y1="220.0" x2="645" y2="220.0" class="g"/><text x="370" y="223.0" class="xs" text-anchor="end" font-weight="normal">-16</text><line x1="375" y1="145.0" x2="645" y2="145.0" class="g"/><text x="370" y="148.0" class="xs" text-anchor="end" font-weight="normal">0</text><line x1="375" y1="70.0" x2="645" y2="70.0" class="g"/><text x="370" y="73.0" class="xs" text-anchor="end" font-weight="normal">16</text><text x="375.0" y="234" class="xs" text-anchor="middle" font-weight="normal">0.25</text><text x="401.1290322580645" y="234" class="xs" text-anchor="middle" font-weight="normal">1.0</text><text x="505.64516129032256" y="234" class="xs" text-anchor="middle" font-weight="normal">4.0</text><text x="645.0" y="234" class="xs" text-anchor="middle" font-weight="normal">8.0</text><polyline points="375.0,144.5 383.7,144.1 401.1,143.3 436.0,141.4 505.6,132.1 645.0,70.0" class="l1"/><polyline points="375.0,145.4 383.7,145.6 401.1,145.7 436.0,145.6 505.6,145.6 645.0,145.5" class="l2"/><circle cx="375.0" cy="144.5" r="2.2" fill="white" stroke="#111"/><circle cx="383.7" cy="144.1" r="2.2" fill="white" stroke="#111"/><circle cx="401.1" cy="143.3" r="2.2" fill="white" stroke="#111"/><circle cx="436.0" cy="141.4" r="2.2" fill="white" stroke="#111"/><circle cx="505.6" cy="132.1" r="2.2" fill="white" stroke="#111"/><circle cx="645.0" cy="70.0" r="2.2" fill="white" stroke="#111"/><circle cx="375.0" cy="145.4" r="2.2" fill="white" stroke="#111"/><circle cx="383.7" cy="145.6" r="2.2" fill="white" stroke="#111"/><circle cx="401.1" cy="145.7" r="2.2" fill="white" stroke="#111"/><circle cx="436.0" cy="145.6" r="2.2" fill="white" stroke="#111"/><circle cx="505.6" cy="145.6" r="2.2" fill="white" stroke="#111"/><circle cx="645.0" cy="145.5" r="2.2" fill="white" stroke="#111"/><line x1="550" y1="82" x2="570" y2="82" class="l1"/><text x="575" y="85" class="xs" text-anchor="start" font-weight="normal">J_Gamma+</text><line x1="550" y1="97" x2="570" y2="97" class="l2"/><text x="575" y="100" class="xs" text-anchor="start" font-weight="normal">J_Gamma−</text><text x="510" y="240" class="s" text-anchor="middle" font-weight="normal">T</text><rect x="380" y="255" width="250" height="70" rx="4" class="box"/><text x="505" y="276" class="s" text-anchor="middle" font-weight="bold">Representative witness: T=1</text><text x="505" y="297" class="s" text-anchor="middle" font-weight="normal">theta=53.40°, Delta_Gamma=0.5043</text><text x="505" y="315" class="xs" text-anchor="middle" font-weight="normal">G_E=1.8783; signed branches shown</text></svg>